<svg xmlns="http://www.w3.org/2000/svg" xmlns:xlink="http://www.w3.org/1999/xlink" viewBox="0 0 121.14 118.23"><defs><style>.cls-1{fill:url(#radial-gradient);}.cls-2{fill:url(#Degradado_sin_nombre_64);}.cls-3{fill:url(#Degradado_sin_nombre_60);}.cls-4{fill:url(#Degradado_sin_nombre_15);}.cls-5{fill:url(#radial-gradient-2);}.cls-6{fill:url(#Degradado_sin_nombre_67);}</style><radialGradient id="radial-gradient" cx="14.12" cy="83.41" r="63.52" gradientUnits="userSpaceOnUse"><stop offset="0" stop-color="#a0d9f7"/><stop offset="0.35" stop-color="#009ee2"/><stop offset="0.68" stop-color="#19083c"/><stop offset="1" stop-color="#09001b"/></radialGradient><radialGradient id="Degradado_sin_nombre_64" cx="112.48" cy="88.29" r="69.24" gradientTransform="translate(-33.22 -27.03) scale(0.9 0.84)" gradientUnits="userSpaceOnUse"><stop offset="0" stop-color="#d8d8d7"/><stop offset="0.58" stop-color="#b0b0af"/><stop offset="1" stop-color="#8b8b8a"/></radialGradient><radialGradient id="Degradado_sin_nombre_60" cx="65.69" cy="50.28" fx="36.52161929389117" fy="28.426930818650774" r="64.02" gradientUnits="userSpaceOnUse"><stop offset="0.56" stop-color="#00a099"/><stop offset="0.63" stop-color="#38b177"/><stop offset="0.7" stop-color="#74c353"/><stop offset="0.77" stop-color="#a6d136"/><stop offset="0.84" stop-color="#ccdd1e"/><stop offset="0.9" stop-color="#e8e50e"/><stop offset="0.96" stop-color="#f9ea04"/><stop offset="1" stop-color="#ffec00"/></radialGradient><radialGradient id="Degradado_sin_nombre_15" cx="27.39" cy="90.3" r="6.75" gradientTransform="translate(-19.28 -2.88) scale(0.93 0.93)" gradientUnits="userSpaceOnUse"><stop offset="0" stop-color="#d8d8d7"/><stop offset="0.33" stop-color="#9b9b9a"/><stop offset="0.44" stop-color="#b0b0af"/><stop offset="0.53" stop-color="#8b8b8a"/></radialGradient><radialGradient id="radial-gradient-2" cx="39.83" cy="10.86" r="83.5" gradientTransform="matrix(1, 0, 0, 1, 0, 0)" xlink:href="#Degradado_sin_nombre_64"/><radialGradient id="Degradado_sin_nombre_67" cx="82.38" cy="82.36" fx="27.178037491987773" fy="71.01773531712155" r="75.79" gradientTransform="translate(0 2.16) scale(1 1.01)" gradientUnits="userSpaceOnUse"><stop offset="0" stop-color="#a0d9f7"/><stop offset="0.35" stop-color="#009ee2"/></radialGradient></defs><g id="Capa_2" data-name="Capa 2"><g id="Logo_HT3" data-name="Logo HT3"><polygon class="cls-1" points="106.84 79.58 106.3 92.97 85.32 112.46 61.94 116.24 42.24 114.26 26.28 108.04 19.09 102.34 14.86 97.56 10.93 92.62 22.9 84.4 45.9 81.86 78.3 83.29 96.55 81.93 106.84 79.58"/><path class="cls-2" d="M107.32,59.13c0,26-20.42,46-45.61,46A45,45,0,0,1,16.42,59.69,45.29,45.29,0,0,1,61.71,14.2C86.9,14.2,107.32,34.78,107.32,59.13Z"/><path class="cls-3" d="M52.92,54S72.71,48.44,84,46.43c0-.12,18.41,33.81-11.89,49.34C44.28,109.79,8.22,75,25.5,39.42c12.77-21,36.06-22.9,49.08-20.22,0,0,5.18-13.76,6.51-17.6,12.36,4.51,22,11.52,29.31,21-12,2.76-36.33,7.37-62.11,16Z"/><path class="cls-4" d="M6.29,75.27a6.32,6.32,0,1,0,6.28,6.32A6.3,6.3,0,0,0,6.29,75.27Zm0,9.5a3.18,3.18,0,1,1,3.18-3.18A3.18,3.18,0,0,1,6.29,84.77Z"/><path class="cls-5" d="M61.93,0A69.33,69.33,0,0,1,76.87,2.13c-2,5.78-1.88,5.15-2,5.78A97.5,97.5,0,0,0,61.93,6.74C30.17,6.57,4.06,32.85,4.06,64.48A48.08,48.08,0,0,0,5.57,76.87s-.88.77-1,.46A57.49,57.49,0,0,1,1.72,60.26C1.89,27.45,29.42.13,61.93,0Z"/><path class="cls-6" d="M90.57,96.67c21.71-21.52,7.59-56.26,8-56.9a183.36,183.36,0,0,0,18.34-3.2,58.13,58.13,0,0,1,4.22,22c.21,33.46-27.43,59.7-60.73,59.7-21.09.42-38.09-8.55-49.48-25.6C34.54,120.75,71.17,116.06,90.57,96.67Z"/></g></g></svg>