<svg xmlns="http://www.w3.org/2000/svg" viewBox="0 0 384.25 151.99"><defs><style>.cls-1{fill:#1d1d1b;}.cls-2{fill:#f39200;}.cls-3{fill:#36a9e1;}</style></defs><g id="Layer_2" data-name="Layer 2"><g id="Capa_1" data-name="Capa 1"><path class="cls-1" d="M53.08,4.64V69.2H41.79V42l.41-10.75L39,36.15,26.5,50.81,14,36.15l-3.23-4.92L11.29,42V69.2H0V4.64H.91L26.59,34.92,52.08,4.64Z"/><path class="cls-1" d="M67.56,4.37H80.31V16.48H67.56ZM68,23.86H79.85V69.2H68Z"/><path class="cls-1" d="M128.23,27.07q3.44,4.29,3.43,12.17v30H120V40.25a10.44,10.44,0,0,0-1.64-6.17,5.55,5.55,0,0,0-4.83-2.3,7.67,7.67,0,0,0-4,1.09,8.07,8.07,0,0,0-2.94,3,8.78,8.78,0,0,0-1.09,4.35v29H93.88V23.86h10.56l.23,6A15.09,15.09,0,0,1,118,22.76Q124.79,22.76,128.23,27.07Z"/><path class="cls-1" d="M146.85,20.37a138.87,138.87,0,0,0,.84-14.63h11.2a68.22,68.22,0,0,1-1.41,13.56q-1.41,7-3.51,14.48h-9.1Q146,28.28,146.85,20.37Z"/><path class="cls-2" d="M180.67,69.2a28.48,28.48,0,0,1-6.58-2.59,19.16,19.16,0,0,1-4.46-3.33l4.65-9.56a15.5,15.5,0,0,0,3.18,2.92,22.59,22.59,0,0,0,4.9,2.64,14.7,14.7,0,0,0,5.48,1.09,9.28,9.28,0,0,0,6-2,6.79,6.79,0,0,0,2.43-5.58,7.23,7.23,0,0,0-1.11-4,11.86,11.86,0,0,0-3-3.05q-1.85-1.33-5.67-3.66-5.23-3.19-8.2-5.44a20.4,20.4,0,0,1-5.12-5.92,17.16,17.16,0,0,1-2.16-8.86,18.09,18.09,0,0,1,2.16-8.94,15,15,0,0,1,6.4-6.08,22,22,0,0,1,10.2-2.19,23.21,23.21,0,0,1,16.2,5.92L201,19.85a13.1,13.1,0,0,0-2.33-2.39,14.52,14.52,0,0,0-3.73-2.23,11.64,11.64,0,0,0-4.6-.93,7.16,7.16,0,0,0-5.44,2,7.05,7.05,0,0,0-1.93,5.08,7.38,7.38,0,0,0,1.16,4.12,12.32,12.32,0,0,0,3,3.21q1.89,1.41,5.07,3.32a96,96,0,0,1,8.84,5.74,19.8,19.8,0,0,1,5.12,5.89,17.27,17.27,0,0,1,2.07,8.77A18.34,18.34,0,0,1,205.87,62a15.42,15.42,0,0,1-6.78,6.13,23.94,23.94,0,0,1-10.43,2.11A30.85,30.85,0,0,1,180.67,69.2Z"/><path class="cls-1" d="M225.63,68.84a9.3,9.3,0,0,1-4-5.22,29.8,29.8,0,0,1-1.16-9.17v-21h-5.92V23.86h6.38l.63-9.56L231.46,10V23.86h11.2v9.56h-11.2V54.18c0,2.55.35,4.35,1,5.42a3.49,3.49,0,0,0,3.14,1.59,10.17,10.17,0,0,0,4.07-1A15.18,15.18,0,0,0,243.39,58l2.18,9.2a17.89,17.89,0,0,1-5.76,2.39,25.84,25.84,0,0,1-6.26,1A15.36,15.36,0,0,1,225.63,68.84Z"/><path class="cls-1" d="M260.28,67.29a18,18,0,0,1-7.15-8.13,30,30,0,0,1-2.46-12.72,29.44,29.44,0,0,1,2.53-12.75,18.14,18.14,0,0,1,7.33-8.13A22.41,22.41,0,0,1,272,22.76a20.8,20.8,0,0,1,11.22,2.89,18.11,18.11,0,0,1,7,8.22,30.71,30.71,0,0,1,2.37,12.57A29.79,29.79,0,0,1,290.1,59a18.42,18.42,0,0,1-7.17,8.24,21.22,21.22,0,0,1-11.32,2.89A21.57,21.57,0,0,1,260.28,67.29Zm18-10q2.2-3.69,2.21-10.88t-2.21-10.95a7.07,7.07,0,0,0-6.44-3.71,7.53,7.53,0,0,0-6.74,3.5q-2.28,3.51-2.28,11.16t2.28,11.11A7.56,7.56,0,0,0,271.8,61,7.07,7.07,0,0,0,278.24,57.32Z"/><path class="cls-1" d="M309.81,67.13A18.66,18.66,0,0,1,303,58.64a30.93,30.93,0,0,1-2.21-11.93,28.75,28.75,0,0,1,2.46-11.93A20.61,20.61,0,0,1,310.49,26a20.13,20.13,0,0,1,11.57-3.28,26.81,26.81,0,0,1,7.3.89,16.77,16.77,0,0,1,6,3.21l-3.73,9.65a9.11,9.11,0,0,0-3.89-3.12,12.29,12.29,0,0,0-5-1.16q-9.92,0-9.92,14.39,0,7.52,2.44,11c1.62,2.29,4.12,3.44,7.48,3.44a13.38,13.38,0,0,0,5.58-1.14,11.59,11.59,0,0,0,4-2.78l3.46,8.1a12.35,12.35,0,0,1-3,2.26,23.24,23.24,0,0,1-11.27,2.84A20.17,20.17,0,0,1,309.81,67.13Z"/><path class="cls-1" d="M345.46,0H356.2V34l-.36,10.66,13.93-20.76H382.7L366.85,44.71l17.4,24.49H370.5L355.84,47.26l.36,11.11V69.2H345.46Z"/><path class="cls-3" d="M275.32,107.19c-6.47.14-12.55.32-18.44.66,2.09,3.84,1.85,7.83,1.66,11.89,5.2-.27,11.33-.43,17-.55Z"/><path class="cls-2" d="M250.76,102.08a18.31,18.31,0,0,0-1.26-2.24c-.2-.33-.41-.66-.63-1A41.49,41.49,0,0,0,238,87.47c-13.86-9.85-31.55-8.33-51.2,4.35,2.7,3.58,4.38,10.21,4.64,11.3l.95-.63c15.8-10.47,28.81-12.23,38.66-5.24,6.56,4.65,11,11.92,11.2,20a19.86,19.86,0,0,1-.3,4,22.45,22.45,0,0,1-11.78,15.52c-7.85,4.26-15.87,4.22-23.65-1a44.76,44.76,0,0,0-11.75,6.13c12,10.69,27.79,12.68,41.12,5.45a36.49,36.49,0,0,0,12.21-10.52,32.52,32.52,0,0,0,5.78-17.27A38.46,38.46,0,0,0,250.76,102.08Z"/><path class="cls-2" d="M172.45,113.67a55.86,55.86,0,0,0-3.31-11.62c-11.95,5.37-24.88,8.15-37.72,10.77-2.3.46-12.55,2.78-12.55,2.78l-1.28.23a115.89,115.89,0,0,1-20.21,1.83v12a126.83,126.83,0,0,0,22.53-2l12-2.55C145.64,122.18,159.53,119.25,172.45,113.67Z"/><path class="cls-3" d="M187.94,106.13c-1.71-5.23-3.66-11.15-7.24-15.45-.19-.23-.39-.46-.59-.68a28.7,28.7,0,0,0-13.35-8,34.27,34.27,0,0,0-7-1.22,39.33,39.33,0,0,0-35.28,17.91,34.13,34.13,0,0,0-5,11.77c3.12-.68,10.28-2.12,13.36-2.74,1.68-3.78,4.29-6.39,7.59-9a27.43,27.43,0,0,1,15.72-6,20,20,0,0,1,11.72,2.71c4.25,2.69,6.64,7.16,8.23,11.79,1.72,5,3.44,10,5.09,15l.69,2A95.26,95.26,0,0,1,192.42,119C192.14,119.15,188.29,107.18,187.94,106.13Z"/><path class="cls-3" d="M234.88,110.17a161.11,161.11,0,0,0-40.31,12.48l-.25.11-10.65,5.54c-6.41,3.64-12.69,7.63-19.76,9.89-6.21,2-13.06,2.58-19.23.49A18.29,18.29,0,0,1,133.49,129c-1.4.4-8.91,2.49-12,2.74.41,1.12,1.12,2.87,1.22,3.06A31.9,31.9,0,0,0,140.65,150a35.4,35.4,0,0,0,8.46,1.77c1.38.13,2.73.18,4.06.18,17.15,0,31.25-10.88,46-18.17a128.32,128.32,0,0,1,18.78-7.26q4.67-1.45,9.4-2.59c.9-.21,9.11-1.44,9.2-1.87A19.79,19.79,0,0,0,234.88,110.17Z"/></g></g></svg>